<?xml version="1.0" encoding="UTF-8" standalone="no"?>
<!DOCTYPE svg PUBLIC "-//W3C//DTD SVG 1.1//EN"
 "http://www.w3.org/Graphics/SVG/1.1/DTD/svg11.dtd">
<!-- Generated by graphviz version 2.38.0 (20140413.2041)
 -->
<!-- Title: controllers_diagram Pages: 1 -->
<svg width="694pt" height="615pt"
 viewBox="0.00 0.00 693.50 615.00" xmlns="http://www.w3.org/2000/svg" xmlns:xlink="http://www.w3.org/1999/xlink">
<g id="graph0" class="graph" transform="scale(1 1) rotate(0) translate(276 371.5)">
<title>controllers_diagram</title>
<polygon fill="none" stroke="none" points="-276,243.5 -276,-371.5 417.5,-371.5 417.5,243.5 -276,243.5"/>
<!-- _diagram_info -->
<g id="node1" class="node"><title>_diagram_info</title>
<text text-anchor="start" x="88" y="128.4" font-family="Times,serif" font-size="13.00">Controllers diagram</text>
<text text-anchor="start" x="88" y="142.4" font-family="Times,serif" font-size="13.00">Date: Nov 21 2016 &#45; 20:39</text>
<text text-anchor="start" x="88" y="156.4" font-family="Times,serif" font-size="13.00">Migration version: 20161121223918</text>
<text text-anchor="start" x="88" y="170.4" font-family="Times,serif" font-size="13.00">Generated by RailRoady 1.5.2</text>
<text text-anchor="start" x="88" y="184.4" font-family="Times,serif" font-size="13.00">http://railroady.prestonlee.com</text>
</g>
<!-- ApplicationController -->
<g id="node2" class="node"><title>ApplicationController</title>
<path fill="none" stroke="black" d="M-260,-273C-260,-273 -148,-273 -148,-273 -142,-273 -136,-279 -136,-285 -136,-285 -136,-355 -136,-355 -136,-361 -142,-367 -148,-367 -148,-367 -260,-367 -260,-367 -266,-367 -272,-361 -272,-355 -272,-355 -272,-285 -272,-285 -272,-279 -266,-273 -260,-273"/>
<text text-anchor="middle" x="-204" y="-351.8" font-family="Times,serif" font-size="14.00">ApplicationController</text>
<polyline fill="none" stroke="black" points="-272,-344 -136,-344 "/>
<polyline fill="none" stroke="black" points="-272,-320 -136,-320 "/>
<polyline fill="none" stroke="black" points="-272,-296 -136,-296 "/>
<text text-anchor="start" x="-264" y="-280.8" font-family="Times,serif" font-size="14.00">_layout</text>
</g>
<!-- GenresController -->
<g id="node3" class="node"><title>GenresController</title>
<path fill="none" stroke="black" d="M-52,111.5C-52,111.5 34,111.5 34,111.5 40,111.5 46,105.5 46,99.5 46,99.5 46,-89.5 46,-89.5 46,-95.5 40,-101.5 34,-101.5 34,-101.5 -52,-101.5 -52,-101.5 -58,-101.5 -64,-95.5 -64,-89.5 -64,-89.5 -64,99.5 -64,99.5 -64,105.5 -58,111.5 -52,111.5"/>
<text text-anchor="middle" x="-9" y="-86.3" font-family="Times,serif" font-size="14.00">GenresController</text>
<polyline fill="none" stroke="black" points="-64,-78.5 46,-78.5 "/>
<text text-anchor="start" x="-56" y="-63.3" font-family="Times,serif" font-size="14.00">create</text>
<text text-anchor="start" x="-56" y="-48.3" font-family="Times,serif" font-size="14.00">destroy</text>
<text text-anchor="start" x="-56" y="-33.3" font-family="Times,serif" font-size="14.00">edit</text>
<text text-anchor="start" x="-56" y="-18.3" font-family="Times,serif" font-size="14.00">index</text>
<text text-anchor="start" x="-56" y="-3.3" font-family="Times,serif" font-size="14.00">new</text>
<text text-anchor="start" x="-56" y="11.7" font-family="Times,serif" font-size="14.00">show</text>
<text text-anchor="start" x="-56" y="26.7" font-family="Times,serif" font-size="14.00">update</text>
<polyline fill="none" stroke="black" points="-64,34.5 46,34.5 "/>
<polyline fill="none" stroke="black" points="-64,58.5 46,58.5 "/>
<text text-anchor="start" x="-56" y="73.7" font-family="Times,serif" font-size="14.00">_layout</text>
<text text-anchor="start" x="-56" y="88.7" font-family="Times,serif" font-size="14.00">genre_params</text>
<text text-anchor="start" x="-56" y="103.7" font-family="Times,serif" font-size="14.00">set_genre</text>
</g>
<!-- Users::SessionsController -->
<g id="node4" class="node"><title>Users::SessionsController</title>
<path fill="none" stroke="black" d="M-243.5,-33C-243.5,-33 -110.5,-33 -110.5,-33 -104.5,-33 -98.5,-39 -98.5,-45 -98.5,-45 -98.5,-115 -98.5,-115 -98.5,-121 -104.5,-127 -110.5,-127 -110.5,-127 -243.5,-127 -243.5,-127 -249.5,-127 -255.5,-121 -255.5,-115 -255.5,-115 -255.5,-45 -255.5,-45 -255.5,-39 -249.5,-33 -243.5,-33"/>
<text text-anchor="middle" x="-177" y="-111.8" font-family="Times,serif" font-size="14.00">Users::SessionsController</text>
<polyline fill="none" stroke="black" points="-255.5,-104 -98.5,-104 "/>
<polyline fill="none" stroke="black" points="-255.5,-80 -98.5,-80 "/>
<polyline fill="none" stroke="black" points="-255.5,-56 -98.5,-56 "/>
<text text-anchor="start" x="-247.5" y="-40.8" font-family="Times,serif" font-size="14.00">_layout</text>
</g>
<!-- Users::UnlocksController -->
<g id="node5" class="node"><title>Users::UnlocksController</title>
<path fill="none" stroke="black" d="M-243.5,95C-243.5,95 -112.5,95 -112.5,95 -106.5,95 -100.5,89 -100.5,83 -100.5,83 -100.5,13 -100.5,13 -100.5,7 -106.5,1 -112.5,1 -112.5,1 -243.5,1 -243.5,1 -249.5,1 -255.5,7 -255.5,13 -255.5,13 -255.5,83 -255.5,83 -255.5,89 -249.5,95 -243.5,95"/>
<text text-anchor="middle" x="-178" y="16.2" font-family="Times,serif" font-size="14.00">Users::UnlocksController</text>
<polyline fill="none" stroke="black" points="-255.5,24 -100.5,24 "/>
<polyline fill="none" stroke="black" points="-255.5,48 -100.5,48 "/>
<polyline fill="none" stroke="black" points="-255.5,72 -100.5,72 "/>
<text text-anchor="start" x="-247.5" y="87.2" font-family="Times,serif" font-size="14.00">_layout</text>
</g>
<!-- Users::RegistrationsController -->
<g id="node6" class="node"><title>Users::RegistrationsController</title>
<path fill="none" stroke="black" d="M172,-161C172,-161 354,-161 354,-161 360,-161 366,-167 366,-173 366,-173 366,-257 366,-257 366,-263 360,-269 354,-269 354,-269 172,-269 172,-269 166,-269 160,-263 160,-257 160,-257 160,-173 160,-173 160,-167 166,-161 172,-161"/>
<text text-anchor="middle" x="263" y="-253.8" font-family="Times,serif" font-size="14.00">Users::RegistrationsController</text>
<polyline fill="none" stroke="black" points="160,-246 366,-246 "/>
<polyline fill="none" stroke="black" points="160,-222 366,-222 "/>
<text text-anchor="start" x="168" y="-206.8" font-family="Times,serif" font-size="14.00">configure_account_update_params</text>
<text text-anchor="start" x="168" y="-191.8" font-family="Times,serif" font-size="14.00">configure_sign_up_params</text>
<polyline fill="none" stroke="black" points="160,-184 366,-184 "/>
<text text-anchor="start" x="168" y="-168.8" font-family="Times,serif" font-size="14.00">_layout</text>
</g>
<!-- Users::OmniauthCallbacksController -->
<g id="node7" class="node"><title>Users::OmniauthCallbacksController</title>
<path fill="none" stroke="black" d="M-84,-161C-84,-161 110,-161 110,-161 116,-161 122,-167 122,-173 122,-173 122,-243 122,-243 122,-249 116,-255 110,-255 110,-255 -84,-255 -84,-255 -90,-255 -96,-249 -96,-243 -96,-243 -96,-173 -96,-173 -96,-167 -90,-161 -84,-161"/>
<text text-anchor="middle" x="13" y="-239.8" font-family="Times,serif" font-size="14.00">Users::OmniauthCallbacksController</text>
<polyline fill="none" stroke="black" points="-96,-232 122,-232 "/>
<polyline fill="none" stroke="black" points="-96,-208 122,-208 "/>
<polyline fill="none" stroke="black" points="-96,-184 122,-184 "/>
<text text-anchor="start" x="-88" y="-168.8" font-family="Times,serif" font-size="14.00">_layout</text>
</g>
<!-- Users::ConfirmationsController -->
<g id="node8" class="node"><title>Users::ConfirmationsController</title>
<path fill="none" stroke="black" d="M236.5,79C236.5,79 401.5,79 401.5,79 407.5,79 413.5,73 413.5,67 413.5,67 413.5,-3 413.5,-3 413.5,-9 407.5,-15 401.5,-15 401.5,-15 236.5,-15 236.5,-15 230.5,-15 224.5,-9 224.5,-3 224.5,-3 224.5,67 224.5,67 224.5,73 230.5,79 236.5,79"/>
<text text-anchor="middle" x="319" y="0.2" font-family="Times,serif" font-size="14.00">Users::ConfirmationsController</text>
<polyline fill="none" stroke="black" points="224.5,8 413.5,8 "/>
<polyline fill="none" stroke="black" points="224.5,32 413.5,32 "/>
<polyline fill="none" stroke="black" points="224.5,56 413.5,56 "/>
<text text-anchor="start" x="232.5" y="71.2" font-family="Times,serif" font-size="14.00">_layout</text>
</g>
<!-- Users::PasswordsController -->
<g id="node9" class="node"><title>Users::PasswordsController</title>
<path fill="none" stroke="black" d="M-228.5,239C-228.5,239 -85.5,239 -85.5,239 -79.5,239 -73.5,233 -73.5,227 -73.5,227 -73.5,157 -73.5,157 -73.5,151 -79.5,145 -85.5,145 -85.5,145 -228.5,145 -228.5,145 -234.5,145 -240.5,151 -240.5,157 -240.5,157 -240.5,227 -240.5,227 -240.5,233 -234.5,239 -228.5,239"/>
<text text-anchor="middle" x="-157" y="160.2" font-family="Times,serif" font-size="14.00">Users::PasswordsController</text>
<polyline fill="none" stroke="black" points="-240.5,168 -73.5,168 "/>
<polyline fill="none" stroke="black" points="-240.5,192 -73.5,192 "/>
<polyline fill="none" stroke="black" points="-240.5,216 -73.5,216 "/>
<text text-anchor="start" x="-232.5" y="231.2" font-family="Times,serif" font-size="14.00">_layout</text>
</g>
<!-- SongsController -->
<g id="node10" class="node"><title>SongsController</title>
<path fill="none" stroke="black" d="M92.5,79.5C92.5,79.5 173.5,79.5 173.5,79.5 179.5,79.5 185.5,73.5 185.5,67.5 185.5,67.5 185.5,-121.5 185.5,-121.5 185.5,-127.5 179.5,-133.5 173.5,-133.5 173.5,-133.5 92.5,-133.5 92.5,-133.5 86.5,-133.5 80.5,-127.5 80.5,-121.5 80.5,-121.5 80.5,67.5 80.5,67.5 80.5,73.5 86.5,79.5 92.5,79.5"/>
<text text-anchor="middle" x="133" y="-118.3" font-family="Times,serif" font-size="14.00">SongsController</text>
<polyline fill="none" stroke="black" points="80.5,-110.5 185.5,-110.5 "/>
<text text-anchor="start" x="88.5" y="-95.3" font-family="Times,serif" font-size="14.00">create</text>
<text text-anchor="start" x="88.5" y="-80.3" font-family="Times,serif" font-size="14.00">destroy</text>
<text text-anchor="start" x="88.5" y="-65.3" font-family="Times,serif" font-size="14.00">edit</text>
<text text-anchor="start" x="88.5" y="-50.3" font-family="Times,serif" font-size="14.00">index</text>
<text text-anchor="start" x="88.5" y="-35.3" font-family="Times,serif" font-size="14.00">new</text>
<text text-anchor="start" x="88.5" y="-20.3" font-family="Times,serif" font-size="14.00">show</text>
<text text-anchor="start" x="88.5" y="-5.3" font-family="Times,serif" font-size="14.00">update</text>
<polyline fill="none" stroke="black" points="80.5,2.5 185.5,2.5 "/>
<polyline fill="none" stroke="black" points="80.5,26.5 185.5,26.5 "/>
<text text-anchor="start" x="88.5" y="41.7" font-family="Times,serif" font-size="14.00">_layout</text>
<text text-anchor="start" x="88.5" y="56.7" font-family="Times,serif" font-size="14.00">set_song</text>
<text text-anchor="start" x="88.5" y="71.7" font-family="Times,serif" font-size="14.00">song_params</text>
</g>
</g>
</svg>
