<?xml version="1.0" encoding="UTF-8" standalone="no"?>
<!DOCTYPE svg PUBLIC "-//W3C//DTD SVG 1.1//EN"
 "http://www.w3.org/Graphics/SVG/1.1/DTD/svg11.dtd">
<!-- Generated by graphviz version 2.38.0 (20140413.2041)
 -->
<!-- Title: models_diagram Pages: 1 -->
<svg width="988pt" height="480pt"
 viewBox="0.00 0.00 988.34 480.00" xmlns="http://www.w3.org/2000/svg" xmlns:xlink="http://www.w3.org/1999/xlink">
<g id="graph0" class="graph" transform="scale(1 1) rotate(0) translate(4 476)">
<title>models_diagram</title>
<polygon fill="none" stroke="none" points="-4,4 -4,-476 984.343,-476 984.343,4 -4,4"/>
<!-- _diagram_info -->
<g id="node1" class="node"><title>_diagram_info</title>
<text text-anchor="start" x="8" y="-375.6" font-family="Times,serif" font-size="13.00">Models diagram</text>
<text text-anchor="start" x="8" y="-361.6" font-family="Times,serif" font-size="13.00">Date: Nov 21 2016 &#45; 20:39</text>
<text text-anchor="start" x="8" y="-347.6" font-family="Times,serif" font-size="13.00">Migration version: 20161121223918</text>
<text text-anchor="start" x="8" y="-333.6" font-family="Times,serif" font-size="13.00">Generated by RailRoady 1.5.2</text>
<text text-anchor="start" x="8" y="-319.6" font-family="Times,serif" font-size="13.00">http://railroady.prestonlee.com</text>
</g>
<!-- User -->
<g id="node2" class="node"><title>User</title>
<path fill="none" stroke="black" d="M506.5,-230.5C506.5,-230.5 795.5,-230.5 795.5,-230.5 801.5,-230.5 807.5,-236.5 807.5,-242.5 807.5,-242.5 807.5,-459.5 807.5,-459.5 807.5,-465.5 801.5,-471.5 795.5,-471.5 795.5,-471.5 506.5,-471.5 506.5,-471.5 500.5,-471.5 494.5,-465.5 494.5,-459.5 494.5,-459.5 494.5,-242.5 494.5,-242.5 494.5,-236.5 500.5,-230.5 506.5,-230.5"/>
<text text-anchor="middle" x="651" y="-456.3" font-family="Times,serif" font-size="14.00">User</text>
<polyline fill="none" stroke="black" points="494.5,-448.5 807.5,-448.5 "/>
<text text-anchor="start" x="502.5" y="-433.3" font-family="Times,serif" font-size="14.00">id :integer</text>
<text text-anchor="start" x="502.5" y="-418.3" font-family="Times,serif" font-size="14.00">email :character varying</text>
<text text-anchor="start" x="502.5" y="-403.3" font-family="Times,serif" font-size="14.00">encrypted_password :character varying</text>
<text text-anchor="start" x="502.5" y="-388.3" font-family="Times,serif" font-size="14.00">reset_password_token :character varying</text>
<text text-anchor="start" x="502.5" y="-373.3" font-family="Times,serif" font-size="14.00">reset_password_sent_at :timestamp without time zone</text>
<text text-anchor="start" x="502.5" y="-358.3" font-family="Times,serif" font-size="14.00">remember_created_at :timestamp without time zone</text>
<text text-anchor="start" x="502.5" y="-343.3" font-family="Times,serif" font-size="14.00">sign_in_count :integer</text>
<text text-anchor="start" x="502.5" y="-328.3" font-family="Times,serif" font-size="14.00">current_sign_in_at :timestamp without time zone</text>
<text text-anchor="start" x="502.5" y="-313.3" font-family="Times,serif" font-size="14.00">last_sign_in_at :timestamp without time zone</text>
<text text-anchor="start" x="502.5" y="-298.3" font-family="Times,serif" font-size="14.00">current_sign_in_ip :inet</text>
<text text-anchor="start" x="502.5" y="-283.3" font-family="Times,serif" font-size="14.00">last_sign_in_ip :inet</text>
<text text-anchor="start" x="502.5" y="-268.3" font-family="Times,serif" font-size="14.00">created_at :timestamp without time zone</text>
<text text-anchor="start" x="502.5" y="-253.3" font-family="Times,serif" font-size="14.00">updated_at :timestamp without time zone</text>
<text text-anchor="start" x="502.5" y="-238.3" font-family="Times,serif" font-size="14.00">name :character varying</text>
</g>
<!-- Song -->
<g id="node5" class="node"><title>Song</title>
<path fill="none" stroke="black" d="M391,-72.5C391,-72.5 611,-72.5 611,-72.5 617,-72.5 623,-78.5 623,-84.5 623,-84.5 623,-181.5 623,-181.5 623,-187.5 617,-193.5 611,-193.5 611,-193.5 391,-193.5 391,-193.5 385,-193.5 379,-187.5 379,-181.5 379,-181.5 379,-84.5 379,-84.5 379,-78.5 385,-72.5 391,-72.5"/>
<text text-anchor="middle" x="501" y="-178.3" font-family="Times,serif" font-size="14.00">Song</text>
<polyline fill="none" stroke="black" points="379,-170.5 623,-170.5 "/>
<text text-anchor="start" x="387" y="-155.3" font-family="Times,serif" font-size="14.00">id :integer</text>
<text text-anchor="start" x="387" y="-140.3" font-family="Times,serif" font-size="14.00">name :character varying</text>
<text text-anchor="start" x="387" y="-125.3" font-family="Times,serif" font-size="14.00">duration :integer</text>
<text text-anchor="start" x="387" y="-110.3" font-family="Times,serif" font-size="14.00">genre_id :integer</text>
<text text-anchor="start" x="387" y="-95.3" font-family="Times,serif" font-size="14.00">created_at :timestamp without time zone</text>
<text text-anchor="start" x="387" y="-80.3" font-family="Times,serif" font-size="14.00">updated_at :timestamp without time zone</text>
</g>
<!-- User&#45;&gt;Song -->
<g id="edge2" class="edge"><title>User&#45;&gt;Song</title>
<path fill="none" stroke="#27ae70" d="M562.144,-222.048C557.473,-215.32 552.875,-208.7 548.428,-202.296"/>
<polygon fill="#27ae70" stroke="#27ae70" points="562.18,-222.1 564.188,-232.88 565.032,-226.206 567.884,-230.313 567.884,-230.313 567.884,-230.313 565.032,-226.206 571.58,-227.747 562.18,-222.1 562.18,-222.1"/>
<polygon fill="#27ae70" stroke="#27ae70" points="548.168,-201.921 546.16,-191.141 545.316,-197.815 542.464,-193.708 542.464,-193.708 542.464,-193.708 545.316,-197.815 538.768,-196.275 548.168,-201.921 548.168,-201.921"/>
</g>
<!-- Playlist -->
<g id="node6" class="node"><title>Playlist</title>
<ellipse fill="none" stroke="black" cx="576" cy="-18" rx="37.0935" ry="18"/>
<text text-anchor="middle" x="576" y="-14.3" font-family="Times,serif" font-size="14.00">Playlist</text>
</g>
<!-- User&#45;&gt;Playlist -->
<g id="edge1" class="edge"><title>User&#45;&gt;Playlist</title>
<path fill="none" stroke="#c38ee5" d="M661.58,-222.098C660.771,-173.121 653.692,-118.009 632,-72 625.95,-59.1676 615.311,-47.8765 604.92,-39.0498"/>
<ellipse fill="none" stroke="#c38ee5" cx="661.62" cy="-226.218" rx="4" ry="4"/>
<polygon fill="#c38ee5" stroke="#c38ee5" points="604.911,-39.0426 599.913,-29.2817 601.006,-35.9191 597.102,-32.7957 597.102,-32.7957 597.102,-32.7957 601.006,-35.9191 594.291,-36.3096 604.911,-39.0426 604.911,-39.0426"/>
</g>
<!-- ApplicationRecord -->
<g id="node3" class="node"><title>ApplicationRecord</title>
<ellipse fill="none" stroke="black" cx="903" cy="-351" rx="77.1866" ry="18"/>
<text text-anchor="middle" x="903" y="-347.3" font-family="Times,serif" font-size="14.00">ApplicationRecord</text>
</g>
<!-- Genre -->
<g id="node4" class="node"><title>Genre</title>
<path fill="none" stroke="black" d="M244,-305.5C244,-305.5 464,-305.5 464,-305.5 470,-305.5 476,-311.5 476,-317.5 476,-317.5 476,-384.5 476,-384.5 476,-390.5 470,-396.5 464,-396.5 464,-396.5 244,-396.5 244,-396.5 238,-396.5 232,-390.5 232,-384.5 232,-384.5 232,-317.5 232,-317.5 232,-311.5 238,-305.5 244,-305.5"/>
<text text-anchor="middle" x="354" y="-381.3" font-family="Times,serif" font-size="14.00">Genre</text>
<polyline fill="none" stroke="black" points="232,-373.5 476,-373.5 "/>
<text text-anchor="start" x="240" y="-358.3" font-family="Times,serif" font-size="14.00">id :integer</text>
<text text-anchor="start" x="240" y="-343.3" font-family="Times,serif" font-size="14.00">name :character varying</text>
<text text-anchor="start" x="240" y="-328.3" font-family="Times,serif" font-size="14.00">created_at :timestamp without time zone</text>
<text text-anchor="start" x="240" y="-313.3" font-family="Times,serif" font-size="14.00">updated_at :timestamp without time zone</text>
</g>
<!-- Genre&#45;&gt;Song -->
<g id="edge3" class="edge"><title>Genre&#45;&gt;Song</title>
<path fill="none" stroke="#e0564b" d="M389.201,-298.276C408.74,-269.566 433.29,-233.492 454.404,-202.467"/>
<ellipse fill="none" stroke="#e0564b" cx="386.709" cy="-301.938" rx="4.00002" ry="4.00002"/>
<polygon fill="#e0564b" stroke="#e0564b" points="454.635,-202.128 463.981,-196.393 457.448,-197.995 460.261,-193.861 460.261,-193.861 460.261,-193.861 457.448,-197.995 456.541,-191.329 454.635,-202.128 454.635,-202.128"/>
</g>
<!-- Song&#45;&gt;Playlist -->
<g id="edge4" class="edge"><title>Song&#45;&gt;Playlist</title>
<path fill="none" stroke="#31d216" d="M545.309,-65.2416C550.247,-57.8012 555.022,-50.6065 559.276,-44.197"/>
<ellipse fill="none" stroke="#31d216" cx="542.908" cy="-68.8584" rx="4.00002" ry="4.00002"/>
<polygon fill="#31d216" stroke="#31d216" points="559.564,-43.763 568.844,-37.9197 562.329,-39.5971 565.094,-35.4312 565.094,-35.4312 565.094,-35.4312 562.329,-39.5971 561.345,-32.9427 559.564,-43.763 559.564,-43.763"/>
</g>
</g>
</svg>
