<?xml version="1.0" encoding="UTF-8" standalone="no"?>
<!DOCTYPE svg PUBLIC "-//W3C//DTD SVG 1.1//EN"
 "http://www.w3.org/Graphics/SVG/1.1/DTD/svg11.dtd">
<!-- Generated by graphviz version 2.38.0 (20140413.2041)
 -->
<!-- Title: models_diagram Pages: 1 -->
<svg width="550pt" height="230pt"
 viewBox="0.00 0.00 550.34 230.00" xmlns="http://www.w3.org/2000/svg" xmlns:xlink="http://www.w3.org/1999/xlink">
<g id="graph0" class="graph" transform="scale(1 1) rotate(0) translate(4 226)">
<title>models_diagram</title>
<polygon fill="none" stroke="none" points="-4,4 -4,-226 546.343,-226 546.343,4 -4,4"/>
<!-- _diagram_info -->
<g id="node1" class="node"><title>_diagram_info</title>
<text text-anchor="start" x="8" y="-207.6" font-family="Times,serif" font-size="13.00">Models diagram</text>
<text text-anchor="start" x="8" y="-193.6" font-family="Times,serif" font-size="13.00">Date: Nov 21 2016 &#45; 20:39</text>
<text text-anchor="start" x="8" y="-179.6" font-family="Times,serif" font-size="13.00">Migration version: 20161121223918</text>
<text text-anchor="start" x="8" y="-165.6" font-family="Times,serif" font-size="13.00">Generated by RailRoady 1.5.2</text>
<text text-anchor="start" x="8" y="-151.6" font-family="Times,serif" font-size="13.00">http://railroady.prestonlee.com</text>
</g>
<!-- User -->
<g id="node2" class="node"><title>User</title>
<ellipse fill="none" stroke="black" cx="342" cy="-183" rx="27.0966" ry="18"/>
<text text-anchor="middle" x="342" y="-179.3" font-family="Times,serif" font-size="14.00">User</text>
</g>
<!-- Song -->
<g id="node5" class="node"><title>Song</title>
<ellipse fill="none" stroke="black" cx="285" cy="-90" rx="28.6953" ry="18"/>
<text text-anchor="middle" x="285" y="-86.3" font-family="Times,serif" font-size="14.00">Song</text>
</g>
<!-- User&#45;&gt;Song -->
<g id="edge2" class="edge"><title>User&#45;&gt;Song</title>
<path fill="none" stroke="#9dc826" d="M326.533,-157.307C318.46,-144.419 308.609,-128.692 300.528,-115.79"/>
<polygon fill="#9dc826" stroke="#9dc826" points="326.763,-157.674 328.258,-168.538 329.417,-161.912 332.071,-166.149 332.071,-166.149 332.071,-166.149 329.417,-161.912 335.885,-163.76 326.763,-157.674 326.763,-157.674"/>
<polygon fill="#9dc826" stroke="#9dc826" points="300.315,-115.449 298.82,-104.586 297.66,-111.212 295.006,-106.975 295.006,-106.975 295.006,-106.975 297.66,-111.212 291.192,-109.363 300.315,-115.449 300.315,-115.449"/>
</g>
<!-- Playlist -->
<g id="node6" class="node"><title>Playlist</title>
<ellipse fill="none" stroke="black" cx="313" cy="-18" rx="37.0935" ry="18"/>
<text text-anchor="middle" x="313" y="-14.3" font-family="Times,serif" font-size="14.00">Playlist</text>
</g>
<!-- User&#45;&gt;Playlist -->
<g id="edge1" class="edge"><title>User&#45;&gt;Playlist</title>
<path fill="none" stroke="#fcc36e" d="M337.772,-156.867C333.993,-134.558 328.256,-101.087 323,-72 321.478,-63.5773 319.768,-54.4125 318.198,-46.1093"/>
<ellipse fill="none" stroke="#fcc36e" cx="338.453" cy="-160.893" rx="4.00001" ry="4.00001"/>
<polygon fill="#fcc36e" stroke="#fcc36e" points="318.177,-45.9975 320.731,-35.333 317.244,-41.0854 316.31,-36.1734 316.31,-36.1734 316.31,-36.1734 317.244,-41.0854 311.889,-37.0137 318.177,-45.9975 318.177,-45.9975"/>
</g>
<!-- ApplicationRecord -->
<g id="node3" class="node"><title>ApplicationRecord</title>
<ellipse fill="none" stroke="black" cx="465" cy="-183" rx="77.1866" ry="18"/>
<text text-anchor="middle" x="465" y="-179.3" font-family="Times,serif" font-size="14.00">ApplicationRecord</text>
</g>
<!-- Genre -->
<g id="node4" class="node"><title>Genre</title>
<ellipse fill="none" stroke="black" cx="264" cy="-183" rx="32.4942" ry="18"/>
<text text-anchor="middle" x="264" y="-179.3" font-family="Times,serif" font-size="14.00">Genre</text>
</g>
<!-- Genre&#45;&gt;Song -->
<g id="edge3" class="edge"><title>Genre&#45;&gt;Song</title>
<path fill="none" stroke="#c80f5d" d="M269.832,-156.729C272.602,-144.725 275.916,-130.362 278.739,-118.129"/>
<ellipse fill="none" stroke="#c80f5d" cx="268.849" cy="-160.986" rx="4.00001" ry="4.00001"/>
<polygon fill="#c80f5d" stroke="#c80f5d" points="278.819,-117.784 285.453,-109.052 279.943,-112.912 281.068,-108.04 281.068,-108.04 281.068,-108.04 279.943,-112.912 276.683,-107.028 278.819,-117.784 278.819,-117.784"/>
</g>
<!-- Song&#45;&gt;Playlist -->
<g id="edge4" class="edge"><title>Song&#45;&gt;Playlist</title>
<path fill="none" stroke="#ea7037" d="M294.689,-64.7779C297.182,-58.544 299.878,-51.8046 302.415,-45.4634"/>
<ellipse fill="none" stroke="#ea7037" cx="293.121" cy="-68.6971" rx="4.00001" ry="4.00001"/>
<polygon fill="#ea7037" stroke="#ea7037" points="302.504,-45.241 310.396,-37.6275 304.361,-40.5986 306.218,-35.9562 306.218,-35.9562 306.218,-35.9562 304.361,-40.5986 302.039,-34.2849 302.504,-45.241 302.504,-45.241"/>
</g>
</g>
</svg>
